<?xml version="1.0" encoding="UTF-8"?>
<svg width="1024" height="1024" viewBox="0 0 1024 1024" xmlns="http://www.w3.org/2000/svg">
  <defs>
    <!-- Gradient Definitions -->
    <radialGradient id="backgroundGradient" cx="50%" cy="30%" r="70%">
      <stop offset="0%" style="stop-color:#7B2CBF;stop-opacity:1" />
      <stop offset="50%" style="stop-color:#3B82F6;stop-opacity:1" />
      <stop offset="100%" style="stop-color:#06B6D4;stop-opacity:1" />
    </radialGradient>
    
    <linearGradient id="starGradient" x1="0%" y1="0%" x2="100%" y2="100%">
      <stop offset="0%" style="stop-color:#FFD700;stop-opacity:1" />
      <stop offset="50%" style="stop-color:#FFA500;stop-opacity:1" />
      <stop offset="100%" style="stop-color:#FF6B35;stop-opacity:1" />
    </linearGradient>
    
    <linearGradient id="candlestickGradient" x1="0%" y1="0%" x2="0%" y2="100%">
      <stop offset="0%" style="stop-color:#00FF88;stop-opacity:1" />
      <stop offset="100%" style="stop-color:#00D4FF;stop-opacity:1" />
    </linearGradient>
    
    <linearGradient id="candlestickRedGradient" x1="0%" y1="0%" x2="0%" y2="100%">
      <stop offset="0%" style="stop-color:#FF4757;stop-opacity:1" />
      <stop offset="100%" style="stop-color:#FF3742;stop-opacity:1" />
    </linearGradient>
    
    <!-- Glow Filter -->
    <filter id="glow" x="-50%" y="-50%" width="200%" height="200%">
      <feMorphology operator="dilate" radius="2"/>
      <feGaussianBlur stdDeviation="3" result="coloredBlur"/>
      <feMerge> 
        <feMergeNode in="coloredBlur"/>
        <feMergeNode in="SourceGraphic"/> 
      </feMerge>
    </filter>
    
    <!-- Inner Shadow -->
    <filter id="innerShadow" x="-50%" y="-50%" width="200%" height="200%">
      <feGaussianBlur in="SourceGraphic" stdDeviation="3"/>
      <feOffset dx="2" dy="2" result="offset"/>
    </filter>
  </defs>
  
  <!-- Background Circle with Cosmic Gradient -->
  <circle cx="512" cy="512" r="480" fill="url(#backgroundGradient)" stroke="none"/>
  
  <!-- Outer Ring with Glow -->
  <circle cx="512" cy="512" r="460" fill="none" stroke="#06B6D4" stroke-width="8" opacity="0.8" filter="url(#glow)"/>
  
  <!-- Inner Dark Ring -->
  <circle cx="512" cy="512" r="420" fill="none" stroke="#0A0A0A" stroke-width="4" opacity="0.6"/>
  
  <!-- Central Star Symbol (Trading Symbol) -->
  <g transform="translate(512,512)">
    <!-- Main Star -->
    <path d="M 0,-80 L 20,-25 L 80,-25 L 35,10 L 55,65 L 0,30 L -55,65 L -35,10 L -80,-25 L -20,-25 Z" 
          fill="url(#starGradient)" 
          stroke="#FFD700" 
          stroke-width="3" 
          filter="url(#glow)"/>
    
    <!-- Inner Star Core -->
    <circle cx="0" cy="0" r="25" fill="#FFD700" opacity="0.9"/>
    
    <!-- Central "A" for AstraTrade -->
    <text x="0" y="8" text-anchor="middle" font-family="Arial Black, sans-serif" 
          font-size="36" font-weight="900" fill="#0A0A0A">A</text>
  </g>
  
  <!-- Trading Candlesticks (Mini Chart) -->
  <g transform="translate(300,650)">
    <!-- Candlestick 1 (Green/Up) -->
    <rect x="0" y="20" width="12" height="40" fill="url(#candlestickGradient)" rx="2"/>
    <line x1="6" y1="10" x2="6" y2="70" stroke="#00FF88" stroke-width="2"/>
    
    <!-- Candlestick 2 (Red/Down) -->
    <rect x="25" y="10" width="12" height="35" fill="url(#candlestickRedGradient)" rx="2"/>
    <line x1="31" y1="5" x2="31" y2="50" stroke="#FF4757" stroke-width="2"/>
    
    <!-- Candlestick 3 (Green/Up) -->
    <rect x="50" y="15" width="12" height="50" fill="url(#candlestickGradient)" rx="2"/>
    <line x1="56" y1="8" x2="56" y2="72" stroke="#00FF88" stroke-width="2"/>
    
    <!-- Candlestick 4 (Green/Up) -->
    <rect x="75" y="5" width="12" height="45" fill="url(#candlestickGradient)" rx="2"/>
    <line x1="81" y1="2" x2="81" y2="55" stroke="#00FF88" stroke-width="2"/>
  </g>
  
  <!-- Cosmic Elements -->
  <!-- Small Stars -->
  <g opacity="0.7">
    <circle cx="200" cy="200" r="3" fill="#FFD700"/>
    <circle cx="824" cy="180" r="2" fill="#06B6D4"/>
    <circle cx="150" cy="400" r="2" fill="#FFD700"/>
    <circle cx="870" cy="350" r="3" fill="#3B82F6"/>
    <circle cx="180" cy="800" r="2" fill="#06B6D4"/>
    <circle cx="850" cy="750" r="3" fill="#FFD700"/>
    <circle cx="120" cy="600" r="2" fill="#7B2CBF"/>
    <circle cx="900" cy="580" r="2" fill="#06B6D4"/>
  </g>
  
  <!-- Orbital Rings -->
  <g opacity="0.3">
    <circle cx="512" cy="512" r="300" fill="none" stroke="#06B6D4" stroke-width="1" stroke-dasharray="10,5"/>
    <circle cx="512" cy="512" r="360" fill="none" stroke="#3B82F6" stroke-width="1" stroke-dasharray="15,8"/>
  </g>
  
  <!-- Starknet Symbol (Small) -->
  <g transform="translate(720,300) scale(0.8)" opacity="0.8">
    <path d="M 0,0 L 20,0 L 30,15 L 20,30 L 0,30 L 10,15 Z" 
          fill="#7B2CBF" 
          stroke="#06B6D4" 
          stroke-width="1"/>
  </g>
  
  <!-- Trading Arrows -->
  <g transform="translate(350,380)" opacity="0.6">
    <!-- Up Arrow -->
    <path d="M 0,20 L 10,0 L 20,20 L 15,20 L 15,30 L 5,30 L 5,20 Z" fill="#00FF88"/>
  </g>
  
  <g transform="translate(650,580)" opacity="0.6">
    <!-- Down Arrow -->
    <path d="M 0,0 L 5,0 L 5,10 L 15,10 L 15,0 L 20,0 L 10,20 Z" fill="#FF4757"/>
  </g>
  
  <!-- Border Highlight -->
  <circle cx="512" cy="512" r="490" fill="none" stroke="url(#starGradient)" stroke-width="2" opacity="0.5"/>
</svg>